<?xml version="1.0" encoding="UTF-8" standalone="no"?>
<!DOCTYPE svg PUBLIC "-//W3C//DTD SVG 1.1//EN" "http://www.w3.org/Graphics/SVG/1.1/DTD/svg11.dtd">
<svg xmlns="http://www.w3.org/2000/svg" version="1.1" viewBox="0.00 0.00 832.00 188.00">
<g stroke-width="2.00" fill="none" stroke-linecap="butt">
<path stroke="#800000" vector-effect="non-scaling-stroke" d="
  M 624.22 38.75
  Q 623.70 37.11 622.21 35.73
  A 0.76 0.75 36.5 0 1 622.07 34.80
  Q 623.33 32.61 625.73 31.84
  Q 626.26 31.67 626.49 31.15
  L 628.21 27.22"
/>
<path stroke="#800000" vector-effect="non-scaling-stroke" d="
  M 620.50 38.64
  L 618.88 35.76
  Q 618.64 35.33 618.16 35.24
  C 614.80 34.61 612.58 32.37 609.46 32.11
  Q 602.93 31.55 597.13 32.95
  A 1.77 1.77 0.0 0 0 596.18 35.80
  Q 599.02 39.24 602.66 38.10
  C 605.63 37.17 609.29 35.69 610.39 38.67"
/>
<path stroke="#800000" vector-effect="non-scaling-stroke" d="
  M 541.35 38.44
  L 536.64 35.93
  A 1.12 1.12 0.0 0 1 536.37 34.15
  Q 536.53 33.99 536.65 33.80
  A 1.01 1.01 0.0 0 0 535.10 32.53
  L 533.71 33.84
  A 0.70 0.68 38.1 0 1 532.89 33.93
  Q 527.88 31.03 522.30 29.84
  Q 520.18 29.39 518.36 30.30
  Q 515.96 31.49 513.90 33.34
  Q 513.53 33.67 513.16 33.34
  Q 510.87 31.34 507.96 32.40
  A 1.02 1.01 -2.4 0 0 507.33 33.08
  L 505.73 38.70"
/>
<path stroke="#800000" vector-effect="non-scaling-stroke" d="
  M 503.12 38.65
  Q 503.58 34.36 499.93 33.33
  C 497.52 32.66 495.45 33.88 493.87 35.60
  Q 492.46 37.14 493.40 38.49"
/>
<path stroke="#800000" vector-effect="non-scaling-stroke" d="
  M 423.24 38.49
  Q 424.66 33.10 417.65 34.10
  Q 417.15 34.17 417.06 34.66
  Q 416.66 36.92 417.72 38.75"
/>
<path stroke="#800000" vector-effect="non-scaling-stroke" d="
  M 411.27 38.45
  L 412.83 36.66
  Q 413.17 36.28 413.03 35.79
  C 412.22 32.88 405.22 33.07 407.71 37.84"
/>
<path stroke="#800000" vector-effect="non-scaling-stroke" d="
  M 297.57 39.45
  Q 295.89 36.73 296.00 33.69
  A 0.66 0.65 88.5 0 1 296.59 33.06
  L 300.07 32.74
  Q 300.54 32.70 300.90 32.41
  Q 302.10 31.49 302.33 30.17"
/>
<path stroke="#800000" vector-effect="non-scaling-stroke" d="
  M 447.64 30.07
  C 452.11 33.12 456.42 34.88 460.33 30.09"
/>
<path stroke="#800000" vector-effect="non-scaling-stroke" d="
  M 525.42 38.46
  Q 523.86 36.64 520.72 36.35
  Q 520.26 36.30 520.46 36.72
  L 521.35 38.59"
/>
<path stroke="#800000" vector-effect="non-scaling-stroke" d="
  M 286.10 30.26
  Q 285.52 32.31 287.24 33.15
  C 288.73 33.88 290.00 34.64 291.41 34.83
  A 0.88 0.87 -68.1 0 0 292.24 34.47
  Q 293.60 32.56 293.99 30.19"
/>
<path stroke="#800000" vector-effect="non-scaling-stroke" d="
  M 217.45 30.33
  Q 216.03 33.89 218.55 34.92
  Q 225.71 37.84 228.59 30.53"
/>
<path stroke="#800000" vector-effect="non-scaling-stroke" d="
  M 276.15 30.47
  L 284.02 33.21
  Q 284.43 33.35 284.31 33.76
  C 283.38 36.87 287.83 38.29 289.47 39.66"
/>
<path stroke="#800000" vector-effect="non-scaling-stroke" d="
  M 276.68 39.56
  C 274.64 36.73 271.24 36.28 269.26 39.61"
/>
<path stroke="#800000" vector-effect="non-scaling-stroke" d="
  M 243.31 39.83
  C 240.52 36.21 236.11 34.59 233.34 39.49"
/>
<path stroke="#800000" vector-effect="non-scaling-stroke" d="
  M 168.39 38.34
  Q 165.90 36.44 165.95 34.14"
/>
<path stroke="#800000" vector-effect="non-scaling-stroke" d="
  M 170.72 32.62
  Q 172.75 35.79 176.21 35.92
  Q 181.54 36.11 186.09 35.83
  Q 187.25 35.76 187.81 34.74
  L 188.02 34.37
  Q 188.68 33.19 187.33 33.14
  C 184.94 33.06 177.69 33.82 176.73 30.91"
/>
<path stroke="#800000" vector-effect="non-scaling-stroke" d="
  M 201.55 30.36
  Q 199.66 33.73 197.29 30.19"
/>
<path stroke="#800000" vector-effect="non-scaling-stroke" d="
  M 195.80 30.11
  Q 192.84 33.12 190.49 31.00"
/>
<path stroke="#800000" vector-effect="non-scaling-stroke" d="
  M 239.89 160.81
  Q 237.82 158.09 234.67 156.37
  Q 233.35 155.64 232.23 156.24
  C 230.52 157.16 231.06 159.49 231.77 160.92"
/>
<path stroke="#800000" vector-effect="non-scaling-stroke" d="
  M 225.13 160.92
  L 227.11 156.55
  A 0.40 0.40 0.0 0 0 226.74 155.98
  L 221.52 156.00
  Q 220.91 156.01 220.97 156.61
  Q 221.16 158.53 220.69 159.89"
/>
<path stroke="#800000" vector-effect="non-scaling-stroke" d="
  M 511.71 146.31
  Q 511.30 142.86 508.92 142.19"
/>
<path stroke="#800000" vector-effect="non-scaling-stroke" d="
  M 507.82 144.09
  Q 507.14 144.36 506.63 144.04
  Q 506.17 143.76 506.15 143.23
  C 506.04 140.43 506.46 138.28 502.79 138.07
  Q 497.81 137.78 495.61 141.24"
/>
<path stroke="#800000" vector-effect="non-scaling-stroke" d="
  M 493.84 139.20
  L 496.47 138.78
  A 1.25 1.11 32.9 0 0 495.84 136.50
  Q 492.52 136.99 492.73 138.77"
/>
<path stroke="#800000" vector-effect="non-scaling-stroke" d="
  M 500.97 143.97
  Q 501.23 142.49 500.81 141.47
  Q 500.59 140.95 500.02 141.01
  Q 498.74 141.15 498.12 142.74"
/>
<path stroke="#800000" vector-effect="non-scaling-stroke" d="
  M 302.99 131.79
  Q 300.22 133.38 301.13 136.42
  Q 301.27 136.89 301.73 137.08
  Q 304.28 138.12 306.46 135.91"
/>
<path stroke="#800000" vector-effect="non-scaling-stroke" d="
  M 310.73 138.30
  L 302.36 143.97"
/>
<path stroke="#800000" vector-effect="non-scaling-stroke" d="
  M 269.26 139.12
  C 265.63 138.39 263.23 141.38 264.27 144.87"
/>
<path stroke="#800000" vector-effect="non-scaling-stroke" d="
  M 136.84 144.32
  L 128.64 140.87
  Q 128.06 140.63 128.50 140.18
  Q 129.49 139.18 128.76 137.55
  Q 128.51 136.99 127.90 136.99
  L 125.87 136.99
  Q 125.19 136.99 125.03 137.65
  Q 124.63 139.27 125.75 140.24
  A 0.38 0.38 0.0 0 1 125.54 140.90
  Q 119.69 141.47 120.05 137.71"
/>
<path stroke="#800000" vector-effect="non-scaling-stroke" d="
  M 594.76 144.30
  Q 592.14 142.00 588.49 141.73
  A 0.55 0.55 0.0 0 1 588.03 140.96
  Q 588.76 139.26 590.63 138.92
  A 0.38 0.38 0.0 0 0 590.93 138.46
  Q 590.88 138.23 590.76 138.12
  Q 590.60 137.95 590.21 138.11
  Q 586.27 139.75 581.55 139.77"
/>
<path stroke="#800000" vector-effect="non-scaling-stroke" d="
  M 213.35 154.97
  L 209.36 155.07
  A 1.40 1.40 0.0 0 0 208.89 157.77
  Q 211.44 158.77 213.49 157.15"
/>
<path stroke="#800000" vector-effect="non-scaling-stroke" d="
  M 91.06 150.98
  Q 91.32 156.24 87.96 160.89"
/>
<path stroke="#800000" vector-effect="non-scaling-stroke" d="
  M 110.58 151.57
  Q 112.22 154.99 111.99 157.74
  Q 111.88 159.06 113.21 159.04
  L 115.11 159.00
  A 1.83 1.83 0.0 0 0 116.89 157.40
  L 117.20 155.06
  Q 117.27 154.50 117.73 154.16
  Q 118.93 153.26 119.36 151.72"
/>
<path stroke="#800000" vector-effect="non-scaling-stroke" d="
  M 175.14 151.52
  Q 176.87 155.66 181.97 154.84
  Q 182.46 154.76 182.75 154.36
  Q 185.41 150.63 189.12 153.02
  Q 189.55 153.29 189.80 153.74
  L 190.73 155.43
  Q 191.04 155.98 191.55 155.64
  Q 193.47 154.39 196.08 155.92"
/>
<path stroke="#800000" vector-effect="non-scaling-stroke" d="
  M 618.43 33.61
  Q 621.72 32.69 623.66 29.67
  A 1.02 1.02 0.0 0 0 622.84 28.10
  L 618.16 27.95
  A 2.12 2.12 0.0 0 0 615.97 30.09
  L 615.98 31.77
  A 1.93 1.93 0.0 0 0 618.43 33.61"
/>
<path stroke="#800000" vector-effect="non-scaling-stroke" d="
  M 319.33 37.59
  Q 320.98 38.11 322.74 36.54
  A 1.58 1.57 34.0 0 0 322.22 33.88
  Q 318.24 32.46 313.95 33.14
  A 1.36 1.36 0.0 0 0 312.95 35.10
  C 313.90 36.98 317.44 37.01 319.33 37.59"
/>
<path stroke="#800000" vector-effect="non-scaling-stroke" d="
  M 212.54 30.85
  L 210.42 30.85
  A 0.42 0.42 0.0 0 0 210.00 31.27
  L 210.00 31.95
  A 1.04 0.96 -89.9 0 0 210.96 32.99
  L 212.00 32.99
  A 1.04 0.96 -89.9 0 0 212.96 31.95
  L 212.96 31.27
  A 0.42 0.42 0.0 0 0 212.54 30.85"
/>
<path stroke="#800000" vector-effect="non-scaling-stroke" d="
  M 276.91 157.99
  A 0.64 0.64 0.0 0 0 277.19 157.92
  L 282.49 155.20
  A 0.64 0.64 0.0 0 0 282.20 153.99
  L 273.64 154.01
  A 0.64 0.64 0.0 0 0 273.00 154.65
  L 272.99 157.39
  A 0.64 0.64 0.0 0 0 273.64 158.03
  L 276.91 157.99"
/>
<path stroke="#800000" vector-effect="non-scaling-stroke" d="
  M 217.61 156.14
  Q 218.06 156.96 218.25 156.95
  A 1.07 0.83 -35.1 0 0 218.81 155.12
  L 217.62 154.95
  Q 216.76 154.83 217.13 155.62
  Q 217.29 155.96 217.61 156.14"
/>
<path stroke="#800000" vector-effect="non-scaling-stroke" d="
  M 250.9810 156.4247
  A 2.98 0.95 8.0 0 0 248.1622 155.0692
  A 2.98 0.95 8.0 0 0 245.0790 155.5953
  A 2.98 0.95 8.0 0 0 247.8978 156.9508
  A 2.98 0.95 8.0 0 0 250.9810 156.4247"
/>
<path stroke="#800000" vector-effect="non-scaling-stroke" d="
  M 255.53 157.86
  C 258.22 158.32 262.42 158.41 263.78 155.59
  Q 264.02 155.11 263.48 155.07
  C 261.07 154.91 254.91 154.21 255.03 157.30
  Q 255.05 157.78 255.53 157.86"
/>
<path stroke="#800000" vector-effect="non-scaling-stroke" d="
  M 516.78 138.59
  A 0.72 0.72 0.0 0 0 516.64 137.24
  L 515.49 136.97
  A 0.72 0.72 0.0 0 0 515.21 136.96
  L 513.45 137.23
  A 0.72 0.72 0.0 0 0 512.99 138.38
  L 513.76 139.38
  A 0.72 0.72 0.0 0 0 514.63 139.59
  L 516.78 138.59"
/>
<path stroke="#800000" vector-effect="non-scaling-stroke" d="
  M 683.73 159.92
  L 682.49 155.58
  A 1.14 1.13 83.6 0 1 683.64 154.13
  Q 688.36 154.40 691.71 150.28"
/>
<path stroke="#800000" vector-effect="non-scaling-stroke" d="
  M 698.93 157.40
  Q 699.44 157.73 699.89 157.88
  A 0.85 0.85 0.0 0 0 700.91 156.66
  Q 699.65 154.49 697.19 154.14
  A 0.98 0.98 0.0 0 0 696.25 155.67
  C 696.88 156.58 698.00 156.81 698.93 157.40"
/>
<path stroke="#800000" vector-effect="non-scaling-stroke" d="
  M 692.8413 158.5600
  A 2.08 1.33 30.0 0 0 691.7050 156.3682
  A 2.08 1.33 30.0 0 0 689.2387 156.4800
  A 2.08 1.33 30.0 0 0 690.3750 158.6718
  A 2.08 1.33 30.0 0 0 692.8413 158.5600"
/>
<path stroke="#800000" vector-effect="non-scaling-stroke" d="
  M 679.05 159.93
  Q 679.13 157.18 678.02 154.60
  Q 677.79 154.06 677.22 154.09
  L 673.83 154.24
  Q 673.24 154.26 673.05 154.83
  Q 672.58 156.30 671.21 156.86
  Q 670.59 157.12 670.28 156.52
  L 669.94 155.84
  Q 669.68 155.32 669.12 155.16
  C 665.74 154.20 666.15 157.91 665.74 159.76"
/>
<path stroke="#800000" vector-effect="non-scaling-stroke" d="
  M 170.11 156.71
  Q 169.08 155.28 167.70 154.59
  Q 166.05 153.76 164.81 156.46
  A 1.08 1.07 12.4 0 0 165.79 157.98
  L 169.44 158.01
  A 0.82 0.82 0.0 0 0 170.11 156.71"
/>
<path stroke="#800000" vector-effect="non-scaling-stroke" d="
  M 140.38 157.37
  Q 151.97 158.52 162.76 157.84
  Q 163.45 157.79 163.02 157.25
  C 160.42 153.92 147.75 155.12 144.06 155.50
  C 139.32 156.00 135.59 156.05 131.26 156.14
  Q 131.07 156.15 131.07 156.34
  L 131.07 156.65
  A 0.31 0.31 0.0 0 0 131.38 156.96
  Q 136.84 157.02 140.38 157.37"
/>
</g>
<path fill="#000000" d="
  M 832.00 29.47
  L 832.00 33.04
  Q 830.03 37.00 824.99 37.00
  Q 766.88 37.04 708.75 37.01
  Q 705.73 37.01 703.55 35.93
  A 1.04 1.03 13.7 0 1 702.98 35.01
  Q 702.98 32.22 700.21 31.95
  A 2.34 2.33 81.8 0 1 698.25 30.48
  Q 696.55 26.17 700.49 24.91
  Q 701.05 24.73 701.39 25.21
  L 702.99 27.56
  Q 703.32 28.05 703.88 27.91
  Q 707.61 27.02 713.75 27.01
  Q 763.25 26.96 812.75 27.04
  Q 824.20 27.06 832.00 29.47
  Z"
/>
<path fill="#000000" d="
  M 624.22 38.75
  Q 623.70 37.11 622.21 35.73
  A 0.76 0.75 36.5 0 1 622.07 34.80
  Q 623.33 32.61 625.73 31.84
  Q 626.26 31.67 626.49 31.15
  L 628.21 27.22
  L 646.35 27.20
  A 0.92 0.92 0.0 0 1 647.27 28.13
  L 647.23 30.68
  A 0.26 0.26 0.0 0 0 647.74 30.73
  L 648.20 28.20
  Q 648.28 27.75 648.69 27.55
  Q 652.65 25.66 654.35 29.55
  A 0.77 0.77 0.0 0 0 655.19 29.99
  L 659.92 29.10
  A 0.87 0.75 -36.5 0 1 660.30 29.13
  Q 664.06 30.39 667.42 28.24
  A 1.32 1.29 -56.7 0 1 668.28 28.05
  L 677.40 29.24
  A 0.97 0.97 0.0 0 1 678.21 29.93
  Q 678.27 30.11 678.34 30.26
  Q 678.61 30.85 679.04 30.37
  C 682.18 26.84 685.74 24.41 690.22 27.59
  Q 690.64 27.88 690.70 28.38
  Q 691.37 33.81 687.46 35.78
  Q 685.56 36.74 680.39 36.79
  Q 666.13 36.94 651.88 37.49
  C 650.38 37.55 649.05 38.47 647.50 38.54
  Q 636.77 39.08 624.22 38.75
  Z"
/>
<path fill="#ff0000" d="
  M 628.21 27.22
  L 626.49 31.15
  Q 626.26 31.67 625.73 31.84
  Q 623.33 32.61 622.07 34.80
  A 0.76 0.75 36.5 0 0 622.21 35.73
  Q 623.70 37.11 624.22 38.75
  L 620.50 38.64
  L 618.88 35.76
  Q 618.64 35.33 618.16 35.24
  C 614.80 34.61 612.58 32.37 609.46 32.11
  Q 602.93 31.55 597.13 32.95
  A 1.77 1.77 0.0 0 0 596.18 35.80
  Q 599.02 39.24 602.66 38.10
  C 605.63 37.17 609.29 35.69 610.39 38.67
  Q 608.42 38.53 606.63 38.48
  C 604.07 38.41 601.42 39.25 598.50 38.82
  Q 595.29 38.34 594.19 38.33
  Q 567.66 38.10 541.35 38.44
  L 536.64 35.93
  A 1.12 1.12 0.0 0 1 536.37 34.15
  Q 536.53 33.99 536.65 33.80
  A 1.01 1.01 0.0 0 0 535.10 32.53
  L 533.71 33.84
  A 0.70 0.68 38.1 0 1 532.89 33.93
  Q 527.88 31.03 522.30 29.84
  Q 520.18 29.39 518.36 30.30
  Q 515.96 31.49 513.90 33.34
  Q 513.53 33.67 513.16 33.34
  Q 510.87 31.34 507.96 32.40
  A 1.02 1.01 -2.4 0 0 507.33 33.08
  L 505.73 38.70
  Q 504.81 38.29 503.12 38.65
  Q 503.58 34.36 499.93 33.33
  C 497.52 32.66 495.45 33.88 493.87 35.60
  Q 492.46 37.14 493.40 38.49
  L 423.24 38.49
  Q 424.66 33.10 417.65 34.10
  Q 417.15 34.17 417.06 34.66
  Q 416.66 36.92 417.72 38.75
  L 411.27 38.45
  L 412.83 36.66
  Q 413.17 36.28 413.03 35.79
  C 412.22 32.88 405.22 33.07 407.71 37.84
  Q 399.62 36.65 394.74 36.94
  Q 366.52 38.59 338.26 38.51
  C 325.38 38.47 311.15 39.61 297.57 39.45
  Q 295.89 36.73 296.00 33.69
  A 0.66 0.65 88.5 0 1 296.59 33.06
  L 300.07 32.74
  Q 300.54 32.70 300.90 32.41
  Q 302.10 31.49 302.33 30.17
  L 447.64 30.07
  C 452.11 33.12 456.42 34.88 460.33 30.09
  L 465.32 27.83
  Q 465.79 27.62 466.30 27.62
  L 628.21 27.22
  Z
  M 618.43 33.61
  Q 621.72 32.69 623.66 29.67
  A 1.02 1.02 0.0 0 0 622.84 28.10
  L 618.16 27.95
  A 2.12 2.12 0.0 0 0 615.97 30.09
  L 615.98 31.77
  A 1.93 1.93 0.0 0 0 618.43 33.61
  Z
  M 319.33 37.59
  Q 320.98 38.11 322.74 36.54
  A 1.58 1.57 34.0 0 0 322.22 33.88
  Q 318.24 32.46 313.95 33.14
  A 1.36 1.36 0.0 0 0 312.95 35.10
  C 313.90 36.98 317.44 37.01 319.33 37.59
  Z"
/>
<path fill="#000000" d="
  M 692.13 33.32
  L 691.63 29.13
  A 1.86 1.86 0.0 0 1 693.19 27.06
  L 694.58 26.85
  A 1.86 1.86 0.0 0 1 696.71 28.42
  L 697.14 31.39
  A 1.86 1.86 0.0 0 1 696.67 32.92
  L 695.35 34.36
  A 1.86 1.86 0.0 0 1 692.13 33.32
  Z"
/>
<path fill="#000000" d="
  M 618.43 33.61
  A 1.93 1.93 0.0 0 1 615.98 31.77
  L 615.97 30.09
  A 2.12 2.12 0.0 0 1 618.16 27.95
  L 622.84 28.10
  A 1.02 1.02 0.0 0 1 623.66 29.67
  Q 621.72 32.69 618.43 33.61
  Z"
/>
<path fill="#000000" d="
  M 0.00 36.84
  L 0.00 34.87
  Q 2.76 30.15 9.51 30.09
  Q 38.71 29.82 67.94 30.15
  C 72.66 30.20 76.55 31.07 80.68 32.75
  A 2.36 2.36 0.0 0 0 83.29 32.18
  L 85.91 29.44
  A 1.01 1.01 0.0 0 1 86.98 29.18
  Q 92.73 31.19 98.62 30.68
  C 112.55 29.47 126.81 29.86 140.75 30.67
  C 143.60 30.84 146.78 29.10 149.77 29.37
  Q 152.10 29.58 154.31 30.45
  Q 154.78 30.64 155.28 30.51
  Q 158.26 29.79 161.22 30.49
  A 1.17 1.16 22.8 0 1 161.94 32.24
  Q 161.15 33.51 159.94 34.53
  Q 158.95 35.36 157.30 35.74
  Q 141.83 39.35 135.51 39.67
  Q 119.64 40.48 101.01 39.77
  Q 99.43 39.71 99.46 38.42
  Q 99.48 37.72 98.96 38.19
  L 98.34 38.74
  Q 98.05 39.00 97.68 39.06
  C 92.59 39.96 86.96 39.27 82.69 39.56
  C 61.28 41.01 35.21 39.04 20.50 39.87
  Q 7.56 40.60 0.00 36.84
  Z"
/>
<path fill="#000000" d="
  M 460.33 30.09
  C 456.42 34.88 452.11 33.12 447.64 30.07
  L 460.33 30.09
  Z"
/>
<path fill="#000000" d="
  M 541.35 38.44
  Q 533.27 39.65 525.42 38.46
  Q 523.86 36.64 520.72 36.35
  Q 520.26 36.30 520.46 36.72
  L 521.35 38.59
  L 505.73 38.70
  L 507.33 33.08
  A 1.02 1.01 -2.4 0 1 507.96 32.40
  Q 510.87 31.34 513.16 33.34
  Q 513.53 33.67 513.90 33.34
  Q 515.96 31.49 518.36 30.30
  Q 520.18 29.39 522.30 29.84
  Q 527.88 31.03 532.89 33.93
  A 0.70 0.68 38.1 0 0 533.71 33.84
  L 535.10 32.53
  A 1.01 1.01 0.0 0 1 536.65 33.80
  Q 536.53 33.99 536.37 34.15
  A 1.12 1.12 0.0 0 0 536.64 35.93
  L 541.35 38.44
  Z"
/>
<path fill="#000000" d="
  M 195.80 30.11
  Q 192.84 33.12 190.49 31.00
  Q 193.34 29.83 195.80 30.11
  Z"
/>
<path fill="#000000" d="
  M 201.55 30.36
  Q 199.66 33.73 197.29 30.19
  Q 199.53 29.62 201.55 30.36
  Z"
/>
<path fill="#ff0000" d="
  M 217.45 30.33
  Q 216.03 33.89 218.55 34.92
  Q 225.71 37.84 228.59 30.53
  L 276.15 30.47
  L 284.02 33.21
  Q 284.43 33.35 284.31 33.76
  C 283.38 36.87 287.83 38.29 289.47 39.66
  L 276.68 39.56
  C 274.64 36.73 271.24 36.28 269.26 39.61
  L 243.31 39.83
  C 240.52 36.21 236.11 34.59 233.34 39.49
  Q 224.49 39.40 215.49 39.61
  Q 211.88 39.70 206.06 39.09
  C 195.44 37.98 182.52 39.30 173.36 40.28
  Q 172.86 40.33 172.45 40.04
  Q 170.29 38.45 168.39 38.34
  Q 165.90 36.44 165.95 34.14
  L 170.72 32.62
  Q 172.75 35.79 176.21 35.92
  Q 181.54 36.11 186.09 35.83
  Q 187.25 35.76 187.81 34.74
  L 188.02 34.37
  Q 188.68 33.19 187.33 33.14
  C 184.94 33.06 177.69 33.82 176.73 30.91
  Q 183.84 30.04 190.49 31.00
  Q 192.84 33.12 195.80 30.11
  Q 196.32 30.50 197.29 30.19
  Q 199.66 33.73 201.55 30.36
  L 217.45 30.33
  Z
  M 212.54 30.85
  L 210.42 30.85
  A 0.42 0.42 0.0 0 0 210.00 31.27
  L 210.00 31.95
  A 1.04 0.96 -89.9 0 0 210.96 32.99
  L 212.00 32.99
  A 1.04 0.96 -89.9 0 0 212.96 31.95
  L 212.96 31.27
  A 0.42 0.42 0.0 0 0 212.54 30.85
  Z"
/>
<path fill="#000000" d="
  M 228.59 30.53
  Q 225.71 37.84 218.55 34.92
  Q 216.03 33.89 217.45 30.33
  Q 223.14 29.45 228.59 30.53
  Z"
/>
<path fill="#000000" d="
  M 286.10 30.26
  Q 285.52 32.31 287.24 33.15
  C 288.73 33.88 290.00 34.64 291.41 34.83
  A 0.88 0.87 -68.1 0 0 292.24 34.47
  Q 293.60 32.56 293.99 30.19
  L 302.33 30.17
  Q 302.10 31.49 300.90 32.41
  Q 300.54 32.70 300.07 32.74
  L 296.59 33.06
  A 0.66 0.65 88.5 0 0 296.00 33.69
  Q 295.89 36.73 297.57 39.45
  Q 293.56 40.29 289.47 39.66
  C 287.83 38.29 283.38 36.87 284.31 33.76
  Q 284.43 33.35 284.02 33.21
  L 276.15 30.47
  Q 280.97 29.46 286.10 30.26
  Z"
/>
<path fill="#ff0000" d="
  M 286.10 30.26
  L 293.99 30.19
  Q 293.60 32.56 292.24 34.47
  A 0.88 0.87 -68.1 0 1 291.41 34.83
  C 290.00 34.64 288.73 33.88 287.24 33.15
  Q 285.52 32.31 286.10 30.26
  Z"
/>
<path fill="#000000" d="
  M 176.73 30.91
  C 177.69 33.82 184.94 33.06 187.33 33.14
  Q 188.68 33.19 188.02 34.37
  L 187.81 34.74
  Q 187.25 35.76 186.09 35.83
  Q 181.54 36.11 176.21 35.92
  Q 172.75 35.79 170.72 32.62
  Q 173.49 30.83 176.73 30.91
  Z"
/>
<path fill="#000000" d="
  M 212.54 30.85
  A 0.42 0.42 0.0 0 1 212.96 31.27
  L 212.96 31.95
  A 1.04 0.96 -89.9 0 1 212.00 32.99
  L 210.96 32.99
  A 1.04 0.96 -89.9 0 1 210.00 31.95
  L 210.00 31.27
  A 0.42 0.42 0.0 0 1 210.42 30.85
  L 212.54 30.85
  Z"
/>
<path fill="#000000" d="
  M 620.50 38.64
  Q 615.12 39.44 610.39 38.67
  C 609.29 35.69 605.63 37.17 602.66 38.10
  Q 599.02 39.24 596.18 35.80
  A 1.77 1.77 0.0 0 1 597.13 32.95
  Q 602.93 31.55 609.46 32.11
  C 612.58 32.37 614.80 34.61 618.16 35.24
  Q 618.64 35.33 618.88 35.76
  L 620.50 38.64
  Z"
/>
<path fill="#000000" d="
  M 319.33 37.59
  C 317.44 37.01 313.90 36.98 312.95 35.10
  A 1.36 1.36 0.0 0 1 313.95 33.14
  Q 318.24 32.46 322.22 33.88
  A 1.58 1.57 34.0 0 1 322.74 36.54
  Q 320.98 38.11 319.33 37.59
  Z"
/>
<path fill="#000000" d="
  M 503.12 38.65
  Q 498.39 39.56 493.40 38.49
  Q 492.46 37.14 493.87 35.60
  C 495.45 33.88 497.52 32.66 499.93 33.33
  Q 503.58 34.36 503.12 38.65
  Z"
/>
<path fill="#000000" d="
  M 411.27 38.45
  Q 410.08 37.84 407.71 37.84
  C 405.22 33.07 412.22 32.88 413.03 35.79
  Q 413.17 36.28 412.83 36.66
  L 411.27 38.45
  Z"
/>
<path fill="#000000" d="
  M 423.24 38.49
  Q 421.10 39.56 417.72 38.75
  Q 416.66 36.92 417.06 34.66
  Q 417.15 34.17 417.65 34.10
  Q 424.66 33.10 423.24 38.49
  Z"
/>
<path fill="#000000" d="
  M 165.95 34.14
  Q 165.90 36.44 168.39 38.34
  Q 165.58 40.99 161.06 39.45
  Q 160.59 39.28 160.74 38.81
  Q 162.00 34.96 165.95 34.14
  Z"
/>
<path fill="#000000" d="
  M 243.31 39.83
  Q 238.08 41.05 233.34 39.49
  C 236.11 34.59 240.52 36.21 243.31 39.83
  Z"
/>
<path fill="#ff0000" d="
  M 525.42 38.46
  L 521.35 38.59
  L 520.46 36.72
  Q 520.26 36.30 520.72 36.35
  Q 523.86 36.64 525.42 38.46
  Z"
/>
<path fill="#000000" d="
  M 276.68 39.56
  Q 272.81 40.58 269.26 39.61
  C 271.24 36.28 274.64 36.73 276.68 39.56
  Z"
/>
<path fill="#ff0000" d="
  M 239.89 160.81
  Q 237.82 158.09 234.67 156.37
  Q 233.35 155.64 232.23 156.24
  C 230.52 157.16 231.06 159.49 231.77 160.92
  L 225.13 160.92
  L 227.11 156.55
  A 0.40 0.40 0.0 0 0 226.74 155.98
  L 221.52 156.00
  Q 220.91 156.01 220.97 156.61
  Q 221.16 158.53 220.69 159.89
  L 216.69 158.44
  Q 216.21 158.26 215.98 157.80
  Q 215.22 156.26 214.41 154.75
  C 213.01 152.14 214.58 150.58 217.19 150.91
  C 221.13 151.42 224.91 151.89 228.96 151.90
  Q 246.94 151.95 264.91 151.93
  C 270.17 151.93 275.39 150.71 280.48 151.12
  Q 296.68 152.43 312.93 151.97
  C 319.13 151.79 326.22 152.09 333.13 150.59
  A 0.68 0.67 82.2 0 0 333.66 149.88
  Q 333.28 143.08 334.98 136.48
  Q 335.12 135.93 334.96 135.38
  Q 333.39 130.24 333.69 124.88
  Q 333.80 122.83 335.84 122.99
  L 336.32 123.03
  Q 337.93 123.15 337.87 124.76
  Q 337.50 134.93 341.06 144.51
  A 0.57 0.56 -42.7 0 0 342.10 144.55
  L 343.32 142.00
  A 1.09 1.08 43.1 0 1 345.25 141.94
  Q 346.78 144.70 345.92 147.75
  A 0.73 0.72 79.6 0 0 347.05 148.53
  L 349.58 146.63
  A 0.60 0.60 0.0 0 1 350.52 147.23
  L 349.87 150.29
  Q 349.57 151.68 351.00 151.63
  L 373.64 150.79
  A 0.83 0.83 0.0 0 0 374.44 149.97
  L 374.47 146.93
  Q 374.48 146.38 373.96 146.23
  C 368.79 144.72 364.62 142.25 361.98 137.47
  Q 360.38 134.59 357.70 132.62
  Q 357.23 132.27 356.89 132.76
  L 356.52 133.29
  A 0.31 0.31 0.0 0 1 355.97 133.18
  L 354.61 127.31
  Q 354.49 126.80 354.88 126.45
  L 356.97 124.51
  Q 357.40 124.11 356.94 123.76
  Q 355.90 122.97 354.64 123.38
  Q 354.20 123.52 354.06 123.97
  L 353.18 126.80
  A 0.60 0.60 0.0 0 1 352.30 127.15
  Q 351.36 126.60 350.98 125.58
  Q 350.83 125.16 350.45 124.92
  Q 344.65 121.31 344.68 114.74
  Q 344.69 112.79 346.28 111.11
  Q 346.83 110.53 346.97 111.32
  Q 347.05 111.75 347.16 111.71
  A 1.33 1.32 -38.6 0 0 347.45 109.27
  Q 345.38 108.15 345.72 105.73
  A 0.39 0.38 64.1 0 0 345.01 105.48
  L 344.10 107.09
  A 1.26 1.25 -42.6 0 1 341.87 107.00
  Q 340.78 104.61 342.28 102.42
  Q 342.57 102.00 343.07 101.87
  Q 344.30 101.57 344.86 100.43
  Q 345.07 100.01 344.90 99.58
  C 343.07 94.98 340.99 93.53 342.16 87.95
  Q 349.21 54.24 382.95 47.22
  Q 396.18 44.47 410.01 48.71
  C 437.86 57.26 451.19 83.80 444.25 111.48
  Q 438.26 135.34 416.24 145.27
  C 413.79 146.38 412.93 147.49 412.85 150.10
  Q 412.84 150.62 413.35 150.67
  C 421.33 151.48 430.78 152.01 437.93 148.41
  Q 438.38 148.19 438.87 148.29
  C 443.40 149.23 444.87 145.22 449.41 144.40
  Q 450.33 144.23 450.27 145.17
  L 450.25 145.57
  Q 450.18 146.63 449.17 146.96
  L 445.52 148.16
  Q 444.93 148.36 445.27 148.88
  Q 447.25 151.93 449.27 153.20
  C 452.05 154.93 454.71 151.02 457.85 150.98
  Q 480.80 150.65 491.75 151.02
  Q 494.05 151.10 495.70 153.36
  A 0.80 0.79 -21.8 0 0 496.46 153.68
  L 500.05 153.18
  A 0.71 0.70 -6.7 0 1 500.85 153.80
  L 501.31 158.18
  A 0.92 0.92 0.0 0 1 500.76 159.12
  Q 497.66 160.46 494.49 159.28
  Q 493.93 159.07 493.79 158.50
  L 493.42 157.05
  A 1.41 1.40 33.6 0 0 490.67 157.60
  Q 490.99 159.67 488.01 159.61
  Q 463.60 159.12 439.26 160.85
  C 435.47 161.12 432.35 157.41 428.71 159.58
  Q 428.21 159.88 427.73 159.56
  Q 425.01 157.74 425.53 154.45
  A 0.35 0.35 0.0 0 0 424.91 154.19
  Q 417.70 163.68 405.49 160.21
  C 403.68 159.69 403.11 158.50 403.28 156.61
  Q 403.75 151.33 404.50 146.05
  A 1.52 1.47 72.2 0 1 404.92 145.20
  C 412.23 137.85 416.60 133.07 420.32 124.37
  C 422.54 119.18 423.56 112.29 425.91 106.30
  Q 426.09 105.82 425.97 105.32
  C 424.51 99.61 423.98 95.62 429.20 91.80
  A 0.77 0.77 0.0 0 0 428.52 90.45
  L 426.36 91.12
  Q 425.86 91.28 425.70 90.78
  C 422.12 78.94 418.79 69.74 411.17 61.08
  C 404.78 53.84 392.98 53.73 384.25 56.07
  C 378.50 57.62 375.23 62.16 370.10 68.40
  Q 369.80 68.76 369.94 69.21
  L 370.57 71.25
  A 0.80 0.80 0.0 0 1 370.26 72.14
  Q 368.67 73.22 366.82 72.81
  A 0.59 0.56 -12.9 0 1 366.48 72.61
  L 363.50 68.96
  A 0.76 0.76 0.0 0 1 363.38 68.19
  C 364.50 65.44 367.72 62.94 363.78 60.33
  A 0.82 0.82 0.0 0 0 362.51 60.99
  C 362.40 64.85 361.91 69.69 360.13 73.25
  C 358.52 76.48 348.88 80.44 351.62 85.61
  Q 351.91 86.16 352.35 85.72
  C 355.88 82.24 359.93 77.26 364.27 75.00
  A 0.92 0.91 50.0 0 1 365.24 75.09
  L 366.99 76.45
  A 0.77 0.75 32.2 0 1 367.21 77.37
  C 365.11 81.75 364.55 86.17 362.80 90.68
  Q 362.07 92.55 361.99 94.26
  C 361.79 99.21 361.90 102.23 359.16 106.52
  A 2.75 2.75 0.0 0 0 359.52 109.94
  Q 363.22 113.65 362.73 118.92
  A 0.16 0.16 0.0 0 0 363.03 119.02
  L 364.49 116.71
  A 0.43 0.43 0.0 0 1 365.28 116.88
  Q 365.68 120.13 368.44 121.92
  Q 368.91 122.23 368.78 122.77
  L 368.06 125.81
  A 0.74 0.74 0.0 0 0 368.63 126.70
  L 369.04 126.78
  A 0.44 0.44 0.0 0 0 369.56 126.42
  L 370.14 123.04
  A 0.97 0.97 0.0 0 1 371.94 122.72
  L 373.81 125.92
  A 0.72 0.71 54.0 0 1 373.67 126.82
  L 370.93 129.30
  Q 370.53 129.67 370.75 130.16
  L 373.47 136.12
  A 1.25 1.21 -48.5 0 1 373.51 137.05
  L 372.81 138.99
  Q 372.59 139.59 373.20 139.77
  Q 376.35 140.70 377.30 137.60
  A 0.46 0.45 -61.9 0 1 378.02 137.38
  Q 379.87 138.82 381.11 140.60
  Q 382.11 142.04 382.25 144.64
  Q 382.57 150.92 384.26 156.97
  Q 384.41 157.49 384.07 157.92
  L 382.41 160.08
  A 1.15 1.15 0.0 0 1 381.41 160.52
  C 379.31 160.37 377.78 160.13 375.55 160.48
  Q 372.47 160.96 369.54 159.76
  A 1.95 1.89 -37.1 0 0 368.56 159.64
  Q 352.67 161.89 336.79 160.13
  C 330.40 159.42 325.19 160.73 319.08 160.74
  Q 279.57 160.77 239.89 160.81
  Z
  M 347.63 102.83
  L 347.51 104.09
  Q 347.42 105.04 348.18 104.45
  Q 349.18 103.67 348.55 102.62
  A 0.50 0.49 -57.7 0 0 347.63 102.83
  Z
  M 360.42 132.61
  Q 360.05 133.32 360.30 133.80
  A 1.15 1.02 24.2 0 0 362.37 133.15
  L 361.65 131.27
  Q 361.40 130.61 361.04 131.21
  C 360.80 131.63 360.64 132.19 360.42 132.61
  Z
  M 276.91 157.99
  A 0.64 0.64 0.0 0 0 277.19 157.92
  L 282.49 155.20
  A 0.64 0.64 0.0 0 0 282.20 153.99
  L 273.64 154.01
  A 0.64 0.64 0.0 0 0 273.00 154.65
  L 272.99 157.39
  A 0.64 0.64 0.0 0 0 273.64 158.03
  L 276.91 157.99
  Z
  M 217.61 156.14
  Q 218.06 156.96 218.25 156.95
  A 1.07 0.83 -35.1 0 0 218.81 155.12
  L 217.62 154.95
  Q 216.76 154.83 217.13 155.62
  Q 217.29 155.96 217.61 156.14
  Z
  M 250.9810 156.4247
  A 2.98 0.95 8.0 0 0 248.1622 155.0692
  A 2.98 0.95 8.0 0 0 245.0790 155.5953
  A 2.98 0.95 8.0 0 0 247.8978 156.9508
  A 2.98 0.95 8.0 0 0 250.9810 156.4247
  Z
  M 255.53 157.86
  C 258.22 158.32 262.42 158.41 263.78 155.59
  Q 264.02 155.11 263.48 155.07
  C 261.07 154.91 254.91 154.21 255.03 157.30
  Q 255.05 157.78 255.53 157.86
  Z
  M 380.59 158.10
  C 377.12 158.81 375.70 157.20 373.13 155.26
  Q 372.69 154.93 372.37 154.93
  Q 371.87 154.92 371.50 155.33
  A 0.71 0.70 -44.1 0 0 371.48 156.28
  Q 375.30 160.62 380.93 158.71
  Q 381.04 158.67 381.01 158.57
  L 380.94 158.32
  Q 380.87 158.04 380.59 158.10
  Z
  M 432.1069 158.1239
  A 1.12 0.52 58.4 0 0 431.9629 156.8975
  A 1.12 0.52 58.4 0 0 430.9331 156.2161
  A 1.12 0.52 58.4 0 0 431.0771 157.4425
  A 1.12 0.52 58.4 0 0 432.1069 158.1239
  Z"
/>
<path fill="#000000" d="
  M 511.71 146.31
  Q 511.30 142.86 508.92 142.19
  Q 508.09 141.67 507.82 144.09
  Q 507.14 144.36 506.63 144.04
  Q 506.17 143.76 506.15 143.23
  C 506.04 140.43 506.46 138.28 502.79 138.07
  Q 497.81 137.78 495.61 141.24
  Q 494.85 141.19 493.84 139.20
  L 496.47 138.78
  A 1.25 1.11 32.9 0 0 495.84 136.50
  Q 492.52 136.99 492.73 138.77
  Q 490.39 138.08 488.64 136.09
  Q 479.34 125.54 477.20 113.25
  Q 475.75 104.90 475.52 90.19
  Q 475.51 89.65 476.01 89.43
  Q 477.85 88.61 479.57 89.72
  A 0.22 0.22 0.0 0 0 479.84 89.37
  C 475.72 85.70 477.00 81.86 478.50 76.98
  C 479.18 74.79 480.28 71.02 482.34 69.44
  C 485.09 67.32 486.80 71.69 489.62 70.80
  A 0.70 0.70 0.0 0 0 489.65 69.47
  L 485.12 67.79
  Q 484.53 67.57 484.84 67.03
  Q 485.46 65.95 487.17 64.96
  Q 490.75 62.88 492.59 65.56
  Q 492.92 66.05 492.93 65.45
  L 493.05 60.19
  Q 493.05 59.76 493.39 59.49
  C 493.99 59.01 494.44 58.77 494.79 58.05
  C 500.92 45.61 517.48 46.66 529.59 47.67
  C 533.30 47.98 542.87 48.28 542.09 53.52
  Q 541.07 60.33 539.72 67.09
  Q 539.62 67.58 539.19 67.83
  C 537.34 68.88 538.17 72.36 538.67 73.87
  A 1.52 1.52 0.0 0 1 537.50 75.85
  L 536.17 76.10
  Q 534.73 76.36 534.22 74.99
  L 533.09 71.98
  Q 532.94 71.59 532.52 71.63
  L 528.91 72.06
  A 0.83 0.82 -1.8 0 1 527.99 71.20
  Q 528.30 65.51 526.55 60.08
  A 1.43 1.41 4.8 0 0 525.83 59.24
  Q 523.84 58.25 520.49 58.01
  C 512.30 57.43 507.26 59.26 502.24 65.99
  Q 494.98 75.72 493.82 88.23
  C 493.73 89.24 492.98 90.31 492.00 90.88
  Q 486.41 94.14 484.69 100.44
  Q 484.57 100.90 484.09 100.94
  L 480.42 101.20
  A 0.62 0.62 0.0 0 0 479.98 102.19
  L 480.24 102.53
  Q 480.71 103.15 481.49 103.04
  Q 485.21 102.47 486.87 105.57
  Q 486.98 105.77 487.02 105.54
  L 488.14 98.64
  Q 488.25 97.96 488.93 97.85
  C 492.24 97.32 493.22 102.77 492.99 104.92
  Q 492.91 105.60 492.27 105.82
  L 491.33 106.14
  A 1.12 1.12 0.0 0 0 490.99 108.08
  L 495.36 111.56
  A 0.74 0.72 14.7 0 1 495.62 111.99
  L 496.71 118.35
  Q 496.75 118.60 496.62 118.82
  Q 495.96 119.91 495.97 121.19
  A 0.81 0.81 0.0 0 0 496.79 122.00
  L 499.92 121.99
  A 0.74 0.72 78.3 0 1 500.59 122.44
  L 502.64 127.50
  Q 502.85 128.04 503.38 128.29
  Q 514.39 133.63 526.63 134.66
  Q 527.13 134.70 527.55 134.42
  Q 531.91 131.51 537.09 130.50
  C 544.78 129.00 544.32 137.00 539.57 140.37
  Q 531.46 146.11 521.30 146.16
  A 1.46 1.45 -64.2 0 0 520.39 146.48
  Q 516.34 149.73 511.71 146.31
  Z
  M 516.78 138.59
  A 0.72 0.72 0.0 0 0 516.64 137.24
  L 515.49 136.97
  A 0.72 0.72 0.0 0 0 515.21 136.96
  L 513.45 137.23
  A 0.72 0.72 0.0 0 0 512.99 138.38
  L 513.76 139.38
  A 0.72 0.72 0.0 0 0 514.63 139.59
  L 516.78 138.59
  Z"
/>
<path fill="#000000" d="
  M 719.34 128.79
  L 716.29 132.43
  A 0.85 0.83 69.5 0 0 716.08 132.90
  Q 715.64 135.91 713.46 138.01
  A 1.53 1.53 0.0 0 1 710.93 136.49
  Q 711.14 135.76 710.70 135.20
  A 0.36 0.36 0.0 0 0 710.05 135.41
  L 709.96 141.09
  A 0.89 0.88 83.2 0 1 709.30 141.94
  C 693.46 146.13 674.88 145.25 658.49 143.95
  C 654.90 143.67 655.72 139.87 657.02 137.79
  Q 657.35 137.27 657.94 137.11
  L 662.76 135.74
  A 1.77 1.77 0.0 0 0 664.05 134.00
  Q 663.71 119.78 664.62 105.58
  Q 664.79 103.01 664.65 100.93
  C 664.40 97.15 663.30 93.27 667.25 90.67
  Q 667.64 90.41 667.78 89.95
  Q 668.63 87.03 670.61 84.72
  A 0.49 0.49 0.0 0 0 670.11 83.93
  L 666.29 84.95
  Q 665.76 85.09 665.30 84.79
  Q 664.25 84.10 664.16 82.27
  C 663.80 75.01 665.84 67.44 663.59 59.32
  Q 663.46 58.83 663.03 58.56
  C 661.23 57.42 658.80 57.22 657.50 55.86
  C 655.57 53.83 655.24 49.55 658.15 48.45
  Q 659.34 48.00 662.39 48.30
  C 675.21 49.58 687.86 47.53 699.51 48.23
  C 721.58 49.57 733.05 68.17 732.91 88.76
  Q 732.81 101.82 729.59 116.66
  A 0.65 0.65 0.0 0 1 728.85 117.16
  Q 727.00 116.85 726.13 118.46
  A 1.51 1.51 0.0 0 0 725.97 119.35
  Q 726.58 123.89 724.67 127.97
  A 1.02 1.00 -88.9 0 1 724.18 128.45
  Q 722.08 129.42 719.90 128.64
  Q 719.57 128.52 719.34 128.79
  Z
  M 710.88 125.77
  Q 711.05 122.34 712.68 119.31
  A 1.54 1.52 -33.0 0 0 712.86 118.48
  Q 712.35 110.21 717.51 103.80
  Q 717.96 103.24 717.27 103.10
  L 715.24 102.69
  Q 714.80 102.60 714.66 102.17
  Q 711.88 93.08 718.42 86.94
  Q 718.85 86.54 718.53 86.05
  Q 714.30 79.56 710.78 72.66
  Q 708.22 67.64 705.94 65.41
  Q 699.45 59.07 690.01 58.36
  C 687.47 58.17 684.81 59.03 682.08 58.97
  A 1.16 1.16 0.0 0 0 680.90 60.14
  Q 681.04 96.47 681.00 132.50
  Q 681.00 134.76 683.24 134.83
  Q 694.54 135.15 703.46 129.75
  Q 707.80 127.12 710.35 131.15
  Q 710.62 131.56 711.02 131.29
  L 713.89 129.39
  A 1.20 1.20 0.0 0 0 713.29 127.19
  Q 712.13 127.12 711.27 126.55
  A 0.90 0.90 0.0 0 1 710.88 125.77
  Z
  M 675.16 81.50
  L 676.18 81.90
  A 0.32 0.31 73.7 0 0 676.48 81.35
  Q 675.92 80.94 675.22 81.03
  A 0.24 0.24 0.0 0 0 675.16 81.50
  Z
  M 721.2741 100.9679
  A 5.43 0.72 116.3 0 0 724.3255 96.4190
  A 5.43 0.72 116.3 0 0 726.0859 91.2321
  A 5.43 0.72 116.3 0 0 723.0345 95.7810
  A 5.43 0.72 116.3 0 0 721.2741 100.9679
  Z
  M 716.22 125.53
  Q 717.64 123.34 716.01 121.31
  Q 715.35 120.49 715.25 121.54
  L 714.92 125.07
  A 0.71 0.71 0.0 0 0 716.22 125.53
  Z"
/>
<path fill="#000000" d="
  M 790.32 129.01
  L 794.11 134.37
  A 0.67 0.67 0.0 0 0 794.74 134.65
  Q 801.21 133.88 807.58 134.04
  C 811.01 134.13 813.72 133.36 814.91 130.13
  C 816.63 125.45 819.23 118.02 824.32 116.37
  A 2.52 2.51 -15.4 0 1 827.55 118.20
  Q 828.16 120.85 828.02 124.01
  Q 827.59 133.40 826.80 142.47
  A 2.23 2.22 -7.0 0 1 825.31 144.37
  Q 823.12 145.13 820.25 145.11
  Q 797.25 145.00 774.26 144.85
  Q 769.83 144.82 768.98 141.32
  C 768.17 138.00 774.69 135.56 776.79 134.68
  A 2.23 2.23 0.0 0 0 778.14 132.45
  Q 777.34 122.68 780.02 113.00
  C 781.20 108.75 780.86 105.93 779.92 101.92
  A 2.24 2.24 0.0 0 1 781.68 99.22
  Q 784.51 98.69 786.73 96.97
  A 0.35 0.35 0.0 0 0 786.58 96.35
  C 783.36 95.68 778.59 95.28 777.96 91.27
  C 777.21 86.47 784.72 87.89 786.88 88.74
  A 1.02 1.02 0.0 0 0 788.16 87.31
  Q 786.69 84.56 783.96 82.94
  Q 783.48 82.66 783.29 82.14
  Q 782.34 79.53 779.48 78.80
  A 1.89 1.88 7.0 0 1 778.06 76.99
  Q 777.97 69.39 777.98 62.00
  C 777.98 58.62 774.36 57.48 771.48 57.14
  Q 770.00 56.96 770.00 55.47
  L 770.00 49.50
  Q 770.00 47.98 771.52 47.98
  Q 774.39 47.96 782.97 48.60
  Q 796.94 49.64 819.25 48.42
  Q 821.70 48.29 825.39 49.16
  Q 825.85 49.27 825.90 49.75
  C 826.59 57.67 825.37 62.60 824.09 69.40
  C 823.49 72.55 822.25 74.16 819.19 74.75
  Q 818.69 74.84 818.24 74.59
  C 814.16 72.23 813.28 65.20 812.90 61.15
  A 2.25 2.24 87.5 0 0 810.68 59.11
  L 794.69 58.97
  Q 794.10 58.97 794.09 59.56
  Q 793.80 75.32 794.00 91.00
  Q 794.01 91.94 793.22 93.98
  Q 793.01 94.54 793.47 94.81
  A 0.40 0.39 -71.0 0 0 794.06 94.52
  C 794.80 89.10 800.71 89.71 804.67 90.06
  A 1.94 1.93 -82.5 0 0 806.76 88.45
  C 807.42 84.53 807.93 78.94 813.83 80.17
  Q 816.14 80.65 817.56 81.91
  A 0.90 0.89 -63.5 0 1 817.85 82.79
  Q 815.14 94.38 817.81 106.01
  A 1.20 1.19 58.6 0 1 817.56 107.06
  Q 814.17 111.00 808.85 110.91
  A 1.04 1.04 0.0 0 1 807.95 109.38
  Q 809.87 105.80 807.37 102.78
  C 804.12 98.87 798.83 103.28 795.92 98.47
  A 1.04 1.04 0.0 0 0 794.43 98.16
  Q 794.24 98.29 794.06 98.70
  Q 793.94 98.97 793.95 99.33
  Q 794.17 118.71 793.89 124.01
  Q 793.72 127.16 790.62 128.14
  Q 789.88 128.38 790.32 129.01
  Z
  M 783.84 115.34
  L 784.74 116.62
  A 0.46 0.46 0.0 0 0 785.38 116.73
  L 786.00 116.29
  A 3.20 1.13 -35.1 0 0 787.97 113.53
  L 787.84 113.35
  A 3.20 1.13 -35.1 0 0 784.58 114.26
  L 783.96 114.70
  A 0.46 0.46 0.0 0 0 783.84 115.34
  Z"
/>
<path fill="#000000" d="
  M 74.05 109.94
  L 74.63 109.93
  Q 75.15 109.91 75.11 110.43
  L 74.68 115.78
  A 0.66 0.65 80.2 0 1 74.30 116.33
  L 72.67 117.04
  A 0.98 0.97 74.8 0 0 72.10 118.04
  Q 72.88 125.12 67.91 131.39
  C 60.83 140.31 54.25 143.46 42.58 144.28
  Q 25.48 145.47 8.37 144.70
  Q 6.99 144.63 4.72 143.28
  Q 4.29 143.02 4.12 142.54
  C 2.83 138.97 7.21 136.88 9.49 135.00
  C 11.69 133.20 11.21 121.72 11.20 118.70
  Q 11.20 118.18 11.56 117.81
  L 13.45 115.88
  Q 13.79 115.52 13.44 115.17
  Q 7.84 109.54 14.55 105.21
  A 0.60 0.59 -34.1 0 0 14.72 104.37
  C 13.54 102.69 10.48 101.20 11.04 98.85
  Q 11.14 98.42 11.56 98.28
  Q 13.09 97.75 13.03 96.07
  Q 13.02 95.57 12.53 95.45
  Q 11.21 95.14 11.18 93.64
  Q 11.00 85.50 9.99 77.09
  A 1.14 1.14 0.0 0 1 11.27 75.82
  L 17.32 76.63
  A 0.40 0.40 0.0 0 0 17.55 75.88
  L 11.52 72.81
  A 0.83 0.83 0.0 0 1 11.06 72.10
  C 10.84 68.09 11.92 61.85 9.86 59.14
  Q 8.64 57.53 3.83 56.67
  A 0.94 0.93 5.5 0 1 3.05 55.74
  L 3.14 49.06
  A 0.76 0.76 0.0 0 1 3.83 48.31
  C 7.10 48.00 10.38 48.93 13.28 48.81
  Q 30.31 48.07 45.24 48.32
  C 54.84 48.47 62.36 52.30 68.83 59.18
  C 73.38 64.01 76.04 68.56 77.12 74.99
  C 78.03 80.39 76.93 85.91 76.03 91.39
  Q 75.71 93.33 76.22 95.04
  C 77.77 100.24 79.02 103.92 75.25 108.65
  Q 74.96 109.01 74.50 108.96
  Q 73.89 108.89 73.67 109.36
  Q 73.38 109.96 74.05 109.94
  Z
  M 56.70 123.95
  C 57.28 121.80 57.36 120.71 59.53 119.67
  Q 60.05 119.42 59.81 118.89
  Q 58.80 116.68 59.12 114.61
  Q 61.30 100.51 61.09 87.47
  C 61.02 83.21 61.29 78.77 59.42 75.11
  Q 57.12 70.63 51.18 64.58
  Q 48.48 61.83 43.25 60.08
  Q 35.55 57.49 27.85 58.94
  A 1.06 1.06 0.0 0 0 26.98 59.98
  L 26.98 134.01
  A 0.90 0.88 2.9 0 0 27.79 134.89
  Q 35.74 135.61 43.17 133.08
  C 47.89 131.48 52.09 127.76 56.22 124.67
  Q 56.58 124.39 56.70 123.95
  Z
  M 70.93 108.05
  Q 71.04 108.74 71.47 108.19
  Q 72.09 107.42 71.67 105.53
  Q 71.47 104.64 71.16 105.49
  Q 70.71 106.73 70.93 108.05
  Z
  M 59.57 125.35
  Q 59.06 126.22 57.95 126.13
  A 0.73 0.73 0.0 0 0 57.69 127.56
  C 59.25 128.02 60.47 127.92 60.77 126.06
  Q 61.12 123.85 60.72 121.54
  Q 60.55 120.57 60.20 121.49
  C 59.69 122.85 60.21 124.28 59.57 125.35
  Z"
/>
<path fill="#000000" d="
  M 302.99 131.79
  Q 300.22 133.38 301.13 136.42
  Q 301.27 136.89 301.73 137.08
  Q 304.28 138.12 306.46 135.91
  Q 308.47 136.40 310.73 138.30
  L 302.36 143.97
  Q 293.57 144.04 283.75 144.17
  Q 280.28 144.22 279.07 141.27
  A 2.12 2.11 -27.8 0 1 279.87 138.70
  L 287.29 133.87
  Q 287.72 133.59 287.83 133.08
  C 288.33 130.70 287.47 128.02 289.28 125.83
  Q 289.58 125.46 289.27 125.11
  Q 288.13 123.83 288.10 121.50
  Q 288.00 113.70 287.92 105.89
  C 287.85 100.26 288.28 90.86 287.76 83.32
  A 0.24 0.24 0.0 0 0 287.28 83.28
  C 286.22 87.44 284.68 91.10 284.03 95.53
  Q 283.55 98.79 282.50 100.75
  Q 278.88 107.49 276.33 114.67
  C 276.00 115.61 275.53 115.91 274.66 116.21
  Q 274.20 116.37 274.18 116.86
  C 274.10 119.90 274.02 122.70 273.22 125.67
  Q 271.33 132.63 269.26 139.12
  C 265.63 138.39 263.23 141.38 264.27 144.87
  C 261.04 145.40 255.60 144.86 255.81 140.25
  Q 256.09 134.09 255.92 127.94
  Q 255.91 127.35 255.32 127.29
  C 250.85 126.83 249.03 117.19 247.91 114.47
  Q 242.70 101.80 238.56 87.07
  A 0.07 0.07 0.0 0 0 238.42 87.08
  C 237.86 91.53 238.17 95.93 236.54 100.19
  C 235.90 101.86 234.62 102.05 233.00 102.17
  Q 231.43 102.27 231.06 103.80
  L 230.86 104.66
  A 0.88 0.87 89.8 0 0 231.92 105.72
  L 235.35 104.85
  A 1.96 1.96 0.0 0 1 237.77 106.46
  Q 238.25 109.67 237.39 113.43
  Q 236.33 118.03 237.31 126.38
  Q 237.41 127.21 237.15 130.10
  C 236.54 136.96 244.60 135.46 245.15 141.71
  Q 245.34 143.89 243.15 143.90
  L 218.78 144.04
  Q 218.25 144.04 218.14 143.51
  Q 217.27 139.38 220.01 136.64
  C 221.26 135.39 223.23 135.20 224.85 134.67
  A 1.61 1.60 81.6 0 0 225.96 133.17
  Q 226.15 123.15 226.07 113.25
  Q 226.06 112.30 226.46 111.17
  Q 226.60 110.74 226.93 110.43
  L 230.08 107.39
  A 0.62 0.62 0.0 0 0 229.89 106.38
  L 227.89 105.50
  A 1.02 1.01 -85.3 0 1 227.31 104.81
  Q 226.07 99.83 230.74 98.12
  A 1.34 1.33 51.8 0 0 231.02 95.75
  L 227.91 93.67
  A 1.22 1.19 10.7 0 1 227.42 92.97
  Q 226.34 88.37 226.25 86.00
  Q 225.79 73.22 226.02 60.31
  A 1.55 1.54 9.8 0 0 224.96 58.82
  Q 222.63 58.05 219.76 56.98
  C 217.01 55.95 217.94 51.15 218.71 49.28
  A 1.85 1.84 12.3 0 1 220.49 48.14
  L 241.93 49.06
  A 2.06 2.05 77.3 0 1 243.66 50.16
  Q 246.62 55.82 246.01 62.17
  A 1.53 1.50 74.6 0 1 245.44 63.20
  Q 243.99 64.33 243.88 66.04
  A 1.41 1.41 0.0 0 0 246.17 67.22
  L 247.13 66.45
  A 1.56 1.56 0.0 0 1 249.53 67.01
  Q 251.07 70.35 248.12 72.44
  A 0.77 0.76 -62.6 0 0 248.56 73.83
  C 253.35 73.85 252.83 78.87 254.26 82.16
  Q 259.83 94.94 263.16 108.47
  Q 263.64 110.39 264.97 111.86
  Q 265.33 112.25 265.54 111.77
  Q 266.36 109.94 266.71 107.99
  Q 268.15 100.00 270.74 92.31
  C 272.03 88.47 275.02 85.45 275.85 81.59
  Q 276.63 77.98 278.26 74.67
  Q 278.49 74.22 278.36 73.74
  Q 278.16 73.00 278.41 72.32
  A 0.76 0.76 0.0 0 1 279.22 71.83
  L 280.07 71.95
  A 0.69 0.68 -88.7 0 0 280.85 71.20
  Q 280.41 66.76 282.70 63.07
  A 0.74 0.73 39.1 0 0 282.60 62.16
  L 281.81 61.35
  Q 281.52 61.04 281.66 60.65
  L 285.62 49.34
  A 0.40 0.39 -81.3 0 1 285.98 49.07
  C 292.70 48.89 299.46 49.14 306.11 48.57
  C 309.56 48.28 313.04 49.73 311.63 53.94
  C 309.82 59.34 303.06 56.21 303.04 62.44
  Q 302.91 97.12 302.99 131.79
  Z"
/>
<path fill="#000000" d="
  M 136.84 144.32
  L 128.64 140.87
  Q 128.06 140.63 128.50 140.18
  Q 129.49 139.18 128.76 137.55
  Q 128.51 136.99 127.90 136.99
  L 125.87 136.99
  Q 125.19 136.99 125.03 137.65
  Q 124.63 139.27 125.75 140.24
  A 0.38 0.38 0.0 0 1 125.54 140.90
  Q 119.69 141.47 120.05 137.71
  Q 124.14 133.21 124.75 124.99
  Q 124.93 122.57 127.43 120.02
  Q 128.01 119.43 128.03 118.60
  L 128.05 117.99
  Q 128.08 116.97 127.24 117.55
  L 125.06 119.04
  A 0.49 0.48 62.7 0 1 124.33 118.80
  C 122.80 114.59 123.58 112.57 124.37 108.37
  A 1.69 1.62 62.3 0 1 124.46 108.06
  Q 124.79 107.23 125.34 106.97
  Q 125.93 106.69 125.37 106.34
  C 121.27 103.76 123.63 99.09 126.56 97.01
  A 0.64 0.64 0.0 0 0 126.47 95.91
  C 124.44 94.95 124.12 93.36 124.09 91.12
  Q 123.98 80.18 123.96 69.25
  Q 123.95 63.11 122.84 59.22
  A 1.21 1.20 0.5 0 0 122.03 58.40
  L 116.10 56.65
  A 1.14 1.13 86.7 0 1 115.36 55.99
  C 114.77 54.56 114.88 51.92 115.09 50.83
  Q 115.37 49.32 117.50 49.30
  Q 158.75 48.95 170.63 48.96
  A 1.33 1.33 0.0 0 1 171.57 49.35
  C 173.82 51.58 173.12 54.03 171.75 56.88
  C 169.90 60.72 169.13 65.80 168.93 70.00
  Q 168.77 73.24 165.53 73.14
  L 163.09 73.07
  Q 159.58 72.97 159.28 69.47
  C 158.91 65.11 159.06 59.06 153.27 58.92
  Q 148.36 58.81 143.52 59.42
  A 2.01 1.96 49.2 0 1 142.71 59.35
  Q 141.71 59.03 140.65 59.05
  A 0.67 0.67 0.0 0 0 140.00 59.72
  L 140.00 88.51
  A 1.51 1.50 0.0 0 0 141.51 90.01
  L 150.97 90.00
  A 2.00 2.00 0.0 0 0 152.96 88.04
  L 153.09 81.90
  A 1.55 1.55 0.0 0 1 154.83 80.39
  L 161.27 81.18
  A 1.05 1.04 81.4 0 1 162.10 81.80
  Q 163.00 83.83 163.06 87.00
  Q 163.20 94.73 162.86 106.08
  C 162.78 108.79 161.58 111.14 158.53 111.09
  C 153.53 111.01 151.81 106.00 151.97 101.78
  A 0.76 0.76 0.0 0 0 151.21 100.99
  L 139.74 101.03
  A 0.68 0.68 0.0 0 0 139.07 101.73
  C 139.23 106.15 133.86 104.89 130.97 105.35
  A 0.73 0.73 0.0 0 0 130.78 106.74
  Q 137.16 109.69 136.83 117.06
  Q 136.81 117.44 136.49 117.64
  Q 134.68 118.75 134.10 120.82
  Q 133.96 121.34 134.29 121.77
  Q 135.79 123.69 138.20 124.24
  Q 138.70 124.35 138.98 124.79
  C 140.66 127.47 139.63 131.01 140.49 134.15
  A 0.80 0.78 -2.7 0 0 141.14 134.73
  Q 148.22 135.81 156.48 134.23
  C 162.34 133.11 160.20 129.08 162.49 125.03
  Q 164.70 121.13 166.51 117.03
  A 1.35 1.32 -0.3 0 1 167.21 116.34
  C 170.94 114.73 172.77 117.30 172.89 120.78
  C 173.14 127.69 172.48 134.96 173.03 141.76
  Q 173.18 143.49 171.25 143.68
  Q 153.91 145.36 136.84 144.32
  Z"
/>
<path fill="#000000" d="
  M 594.76 144.30
  Q 592.14 142.00 588.49 141.73
  A 0.55 0.55 0.0 0 1 588.03 140.96
  Q 588.76 139.26 590.63 138.92
  A 0.38 0.38 0.0 0 0 590.93 138.46
  Q 590.88 138.23 590.76 138.12
  Q 590.60 137.95 590.21 138.11
  Q 586.27 139.75 581.55 139.77
  Q 584.42 136.62 588.74 134.83
  A 1.94 1.93 -10.5 0 0 589.93 133.11
  L 590.23 123.27
  A 0.92 0.90 -6.4 0 1 590.92 122.42
  L 593.28 121.83
  Q 593.87 121.69 593.95 121.08
  Q 594.49 116.81 593.20 112.77
  Q 593.07 112.33 593.37 110.91
  Q 593.48 110.41 593.23 109.96
  Q 588.66 101.52 591.57 92.32
  A 0.90 0.90 0.0 0 0 591.45 91.54
  L 590.46 90.13
  A 1.75 1.72 -63.5 0 1 590.15 89.17
  L 589.93 59.16
  Q 589.93 57.94 588.71 57.89
  C 585.55 57.76 580.54 56.71 581.15 52.52
  C 581.44 50.55 583.38 49.68 585.33 49.53
  Q 595.26 48.76 609.00 49.06
  Q 611.03 49.11 612.26 49.38
  A 0.87 0.87 0.0 0 1 612.92 50.38
  L 611.86 56.46
  Q 611.77 56.98 611.34 57.29
  Q 610.25 58.09 608.85 57.96
  A 1.86 1.86 0.0 0 0 606.93 60.45
  L 608.18 63.86
  A 0.64 0.64 0.0 0 1 607.85 64.67
  L 604.19 66.34
  A 0.63 0.62 58.6 0 0 603.96 67.30
  C 605.22 68.92 608.41 70.76 607.95 73.09
  C 607.26 76.49 602.30 76.38 599.85 75.49
  Q 599.04 75.20 599.54 75.90
  Q 602.86 80.53 603.30 86.10
  Q 603.34 86.67 603.80 86.99
  C 607.62 89.68 606.84 92.59 606.90 96.71
  Q 607.10 111.55 606.94 126.39
  Q 606.93 126.53 606.42 129.82
  C 605.71 134.38 610.14 135.47 613.16 137.35
  A 1.03 1.02 -78.1 0 1 613.62 138.06
  L 614.35 143.14
  Q 614.44 143.71 613.86 143.79
  Q 604.20 145.15 594.76 144.30
  Z
  M 595.57 88.93
  Q 598.19 90.36 599.66 87.65
  A 0.39 0.38 14.4 0 0 599.32 87.09
  Q 597.21 87.05 595.52 88.37
  Q 595.12 88.69 595.57 88.93
  Z"
/>
<path fill="#ff0000" d="
  M 453.55 139.44
  Q 454.30 139.60 454.78 140.22
  A 1.03 1.02 -0.1 0 1 453.34 141.66
  L 451.24 140.03
  Q 450.79 139.68 450.48 140.15
  C 450.06 140.77 449.84 141.22 449.12 141.55
  Q 445.96 143.02 443.46 145.59
  A 0.78 0.78 0.0 0 1 442.12 145.00
  Q 442.36 140.85 446.56 140.89
  A 0.79 0.78 6.8 0 0 447.34 140.28
  Q 448.45 135.32 453.62 134.72
  Q 453.96 134.68 453.89 134.35
  L 453.83 134.06
  A 0.30 0.29 80.1 0 0 453.51 133.83
  Q 452.67 133.90 452.30 133.33
  Q 452.02 132.89 452.23 132.27
  Q 452.51 131.42 453.23 130.86
  Q 453.66 130.53 453.68 129.98
  L 453.73 128.58
  A 0.48 0.48 0.0 0 0 453.03 128.14
  L 451.56 128.92
  A 0.45 0.45 0.0 0 1 450.90 128.56
  L 450.48 123.86
  A 1.77 1.77 0.0 0 1 452.40 121.94
  L 453.19 122.01
  Q 455.20 122.19 454.91 124.19
  Q 453.97 130.62 455.07 137.01
  A 0.87 0.85 -21.1 0 1 454.67 137.89
  L 453.42 138.66
  Q 452.51 139.22 453.55 139.44
  Z"
/>
<path fill="#ff0000" d="
  M 446.28 134.03
  Q 446.32 135.55 445.29 136.57
  A 0.21 0.21 0.0 0 1 444.94 136.39
  Q 445.75 131.99 449.96 130.87
  A 0.87 0.87 0.0 0 1 450.98 132.08
  Q 449.98 134.24 447.58 133.17
  A 0.92 0.92 0.0 0 0 446.28 134.03
  Z"
/>
<path fill="#ff0000" d="
  M 302.99 131.79
  L 303.27 133.85
  Q 303.35 134.41 303.86 134.65
  L 306.46 135.91
  Q 304.28 138.12 301.73 137.08
  Q 301.27 136.89 301.13 136.42
  Q 300.22 133.38 302.99 131.79
  Z"
/>
<path fill="#ff0000" d="
  M 493.84 139.20
  Q 493.31 139.15 492.73 138.77
  Q 492.52 136.99 495.84 136.50
  A 1.25 1.11 32.9 0 1 496.47 138.78
  L 493.84 139.20
  Z"
/>
<path fill="#ff0000" d="
  M 136.84 144.32
  Q 128.88 144.24 121.25 144.27
  C 113.54 144.29 113.83 136.88 120.05 137.71
  Q 119.69 141.47 125.54 140.90
  A 0.38 0.38 0.0 0 0 125.75 140.24
  Q 124.63 139.27 125.03 137.65
  Q 125.19 136.99 125.87 136.99
  L 127.90 136.99
  Q 128.51 136.99 128.76 137.55
  Q 129.49 139.18 128.50 140.18
  Q 128.06 140.63 128.64 140.87
  L 136.84 144.32
  Z"
/>
<path fill="#ff0000" d="
  M 516.78 138.59
  L 514.63 139.59
  A 0.72 0.72 0.0 0 1 513.76 139.38
  L 512.99 138.38
  A 0.72 0.72 0.0 0 1 513.45 137.23
  L 515.21 136.96
  A 0.72 0.72 0.0 0 1 515.49 136.97
  L 516.64 137.24
  A 0.72 0.72 0.0 0 1 516.78 138.59
  Z"
/>
<path fill="#ff0000" d="
  M 446.37 138.70
  Q 444.92 139.60 443.27 139.11
  A 0.33 0.33 0.0 0 1 443.25 138.48
  L 446.41 137.33
  A 0.26 0.25 76.4 0 1 446.75 137.54
  L 446.79 137.81
  Q 446.86 138.39 446.37 138.70
  Z"
/>
<path fill="#ff0000" d="
  M 507.82 144.09
  L 507.77 144.51
  Q 507.73 144.96 507.29 145.03
  Q 503.87 145.64 500.97 143.97
  Q 501.23 142.49 500.81 141.47
  Q 500.59 140.95 500.02 141.01
  Q 498.74 141.15 498.12 142.74
  L 495.61 141.24
  Q 497.81 137.78 502.79 138.07
  C 506.46 138.28 506.04 140.43 506.15 143.23
  Q 506.17 143.76 506.63 144.04
  Q 507.14 144.36 507.82 144.09
  Z"
/>
<path fill="#ff0000" d="
  M 594.76 144.30
  Q 589.88 144.38 583.75 143.25
  Q 581.83 142.90 581.55 139.77
  Q 586.27 139.75 590.21 138.11
  Q 590.60 137.95 590.76 138.12
  Q 590.88 138.23 590.93 138.46
  A 0.38 0.38 0.0 0 1 590.63 138.92
  Q 588.76 139.26 588.03 140.96
  A 0.55 0.55 0.0 0 0 588.49 141.73
  Q 592.14 142.00 594.76 144.30
  Z"
/>
<path fill="#ff0000" d="
  M 310.73 138.30
  Q 313.16 145.59 302.36 143.97
  L 310.73 138.30
  Z"
/>
<path fill="#ff0000" d="
  M 269.26 139.12
  Q 266.77 143.43 264.27 144.87
  C 263.23 141.38 265.63 138.39 269.26 139.12
  Z"
/>
<path fill="#000000" d="
  M 500.97 143.97
  Q 499.43 144.26 498.12 142.74
  Q 498.74 141.15 500.02 141.01
  Q 500.59 140.95 500.81 141.47
  Q 501.23 142.49 500.97 143.97
  Z"
/>
<ellipse fill="#ff0000" cx="0.00" cy="0.00" transform="translate(440.86,142.63) rotate(-32.4)" rx="1.51" ry="0.93"/>
<path fill="#ff0000" d="
  M 508.92 142.19
  Q 511.30 142.86 511.71 146.31
  Q 508.60 145.68 508.92 142.19
  Z"
/>
<path fill="#000000" d="
  M 832.00 155.06
  L 832.00 157.35
  Q 830.75 159.52 828.41 159.66
  Q 811.90 160.63 788.68 159.74
  A 0.88 0.87 -10.7 0 1 787.91 159.22
  L 786.77 156.59
  Q 786.54 156.05 785.95 156.01
  C 783.39 155.80 782.12 156.14 779.97 157.93
  Q 777.70 159.81 774.00 159.86
  Q 728.89 160.46 683.73 159.92
  L 682.49 155.58
  A 1.14 1.13 83.6 0 1 683.64 154.13
  Q 688.36 154.40 691.71 150.28
  Q 710.22 149.47 729.25 151.61
  C 733.33 152.07 739.25 150.10 744.30 150.42
  Q 748.07 150.67 749.87 150.92
  Q 750.34 150.99 750.81 151.60
  Q 751.09 151.97 751.32 151.57
  L 751.50 151.24
  Q 751.62 151.01 751.88 151.00
  C 755.42 150.91 759.14 150.22 762.40 150.17
  Q 794.34 149.60 826.25 151.22
  Q 830.40 151.43 832.00 155.06
  Z
  M 698.93 157.40
  Q 699.44 157.73 699.89 157.88
  A 0.85 0.85 0.0 0 0 700.91 156.66
  Q 699.65 154.49 697.19 154.14
  A 0.98 0.98 0.0 0 0 696.25 155.67
  C 696.88 156.58 698.00 156.81 698.93 157.40
  Z
  M 692.8413 158.5600
  A 2.08 1.33 30.0 0 0 691.7050 156.3682
  A 2.08 1.33 30.0 0 0 689.2387 156.4800
  A 2.08 1.33 30.0 0 0 690.3750 158.6718
  A 2.08 1.33 30.0 0 0 692.8413 158.5600
  Z"
/>
<path fill="#ff0000" d="
  M 691.71 150.28
  Q 688.36 154.40 683.64 154.13
  A 1.14 1.13 83.6 0 0 682.49 155.58
  L 683.73 159.92
  L 679.05 159.93
  Q 679.13 157.18 678.02 154.60
  Q 677.79 154.06 677.22 154.09
  L 673.83 154.24
  Q 673.24 154.26 673.05 154.83
  Q 672.58 156.30 671.21 156.86
  Q 670.59 157.12 670.28 156.52
  L 669.94 155.84
  Q 669.68 155.32 669.12 155.16
  C 665.74 154.20 666.15 157.91 665.74 159.76
  L 531.53 159.78
  Q 530.97 159.78 530.98 159.22
  L 531.04 156.49
  A 0.89 0.89 0.0 0 0 530.50 155.64
  Q 528.93 154.94 527.53 156.09
  A 1.03 1.03 0.0 0 1 525.92 155.64
  Q 525.12 153.41 526.61 151.65
  Q 526.93 151.28 527.42 151.28
  Q 606.21 151.09 685.00 150.94
  Q 688.10 150.94 691.71 150.28
  Z"
/>
<path fill="#ff0000" d="
  M 213.35 154.97
  L 209.36 155.07
  A 1.40 1.40 0.0 0 0 208.89 157.77
  Q 211.44 158.77 213.49 157.15
  Q 213.57 156.87 213.81 156.94
  Q 214.18 157.04 214.12 157.42
  Q 213.53 161.04 209.30 160.86
  Q 204.92 160.67 204.18 157.16
  Q 204.05 156.57 203.52 156.28
  L 199.97 154.31
  A 1.53 1.52 49.8 0 1 200.20 151.54
  Q 207.13 149.09 213.35 154.97
  Z"
/>
<path fill="#000000" d="
  M 91.06 150.98
  Q 91.32 156.24 87.96 160.89
  L 38.99 160.62
  A 0.72 0.72 0.0 0 1 38.30 160.07
  L 37.60 157.26
  A 0.67 0.67 0.0 0 0 36.29 157.30
  Q 35.88 159.41 33.97 159.74
  Q 22.67 161.67 11.26 160.64
  C 9.16 160.45 2.82 159.69 3.17 156.50
  Q 3.78 151.02 9.50 151.03
  Q 50.23 151.08 91.06 150.98
  Z"
/>
<path fill="#ff0000" d="
  M 91.06 150.98
  Q 100.90 152.41 110.58 151.57
  Q 112.22 154.99 111.99 157.74
  Q 111.88 159.06 113.21 159.04
  L 115.11 159.00
  A 1.83 1.83 0.0 0 0 116.89 157.40
  L 117.20 155.06
  Q 117.27 154.50 117.73 154.16
  Q 118.93 153.26 119.36 151.72
  Q 147.23 152.46 175.14 151.52
  Q 176.87 155.66 181.97 154.84
  Q 182.46 154.76 182.75 154.36
  Q 185.41 150.63 189.12 153.02
  Q 189.55 153.29 189.80 153.74
  L 190.73 155.43
  Q 191.04 155.98 191.55 155.64
  Q 193.47 154.39 196.08 155.92
  Q 198.45 156.43 200.83 158.59
  A 1.33 1.33 0.0 0 1 200.84 160.55
  C 199.84 161.49 198.09 161.85 196.63 161.62
  Q 184.44 159.70 180.75 159.95
  C 171.60 160.58 162.77 161.19 153.42 161.09
  Q 120.75 160.72 87.96 160.89
  Q 91.32 156.24 91.06 150.98
  Z
  M 170.11 156.71
  Q 169.08 155.28 167.70 154.59
  Q 166.05 153.76 164.81 156.46
  A 1.08 1.07 12.4 0 0 165.79 157.98
  L 169.44 158.01
  A 0.82 0.82 0.0 0 0 170.11 156.71
  Z
  M 140.38 157.37
  Q 151.97 158.52 162.76 157.84
  Q 163.45 157.79 163.02 157.25
  C 160.42 153.92 147.75 155.12 144.06 155.50
  C 139.32 156.00 135.59 156.05 131.26 156.14
  Q 131.07 156.15 131.07 156.34
  L 131.07 156.65
  A 0.31 0.31 0.0 0 0 131.38 156.96
  Q 136.84 157.02 140.38 157.37
  Z"
/>
<path fill="#000000" d="
  M 119.36 151.72
  Q 118.93 153.26 117.73 154.16
  Q 117.27 154.50 117.20 155.06
  L 116.89 157.40
  A 1.83 1.83 0.0 0 1 115.11 159.00
  L 113.21 159.04
  Q 111.88 159.06 111.99 157.74
  Q 112.22 154.99 110.58 151.57
  Q 115.37 150.08 119.36 151.72
  Z"
/>
<path fill="#000000" d="
  M 196.08 155.92
  Q 193.47 154.39 191.55 155.64
  Q 191.04 155.98 190.73 155.43
  L 189.80 153.74
  Q 189.55 153.29 189.12 153.02
  Q 185.41 150.63 182.75 154.36
  Q 182.46 154.76 181.97 154.84
  Q 176.87 155.66 175.14 151.52
  L 190.15 151.06
  A 0.87 0.87 0.0 0 1 190.86 151.40
  L 191.15 151.77
  Q 191.38 152.08 191.77 152.02
  Q 196.50 151.26 196.08 155.92
  Z"
/>
<path fill="#ff0000" d="
  M 510.18 159.21
  A 1.04 1.03 14.6 0 1 509.23 159.76
  L 503.25 159.56
  Q 502.63 159.55 502.57 158.94
  Q 502.35 156.65 502.45 154.39
  C 502.70 148.54 513.52 152.98 510.18 159.21
  Z"
/>
<rect fill="#ff0000" x="-4.42" y="-3.99" transform="translate(516.26,155.99) rotate(0.1)" width="8.84" height="7.98" rx="3.26"/>
<path fill="#000000" d="
  M 276.91 157.99
  L 273.64 158.03
  A 0.64 0.64 0.0 0 1 272.99 157.39
  L 273.00 154.65
  A 0.64 0.64 0.0 0 1 273.64 154.01
  L 282.20 153.99
  A 0.64 0.64 0.0 0 1 282.49 155.20
  L 277.19 157.92
  A 0.64 0.64 0.0 0 1 276.91 157.99
  Z"
/>
<path fill="#000000" d="
  M 679.05 159.93
  L 665.74 159.76
  C 666.15 157.91 665.74 154.20 669.12 155.16
  Q 669.68 155.32 669.94 155.84
  L 670.28 156.52
  Q 670.59 157.12 671.21 156.86
  Q 672.58 156.30 673.05 154.83
  Q 673.24 154.26 673.83 154.24
  L 677.22 154.09
  Q 677.79 154.06 678.02 154.60
  Q 679.13 157.18 679.05 159.93
  Z"
/>
<path fill="#000000" d="
  M 170.11 156.71
  A 0.82 0.82 0.0 0 1 169.44 158.01
  L 165.79 157.98
  A 1.08 1.07 12.4 0 1 164.81 156.46
  Q 166.05 153.76 167.70 154.59
  Q 169.08 155.28 170.11 156.71
  Z"
/>
<path fill="#ff0000" d="
  M 698.93 157.40
  C 698.00 156.81 696.88 156.58 696.25 155.67
  A 0.98 0.98 0.0 0 1 697.19 154.14
  Q 699.65 154.49 700.91 156.66
  A 0.85 0.85 0.0 0 1 699.89 157.88
  Q 699.44 157.73 698.93 157.40
  Z"
/>
<path fill="#000000" d="
  M 140.38 157.37
  Q 136.84 157.02 131.38 156.96
  A 0.31 0.31 0.0 0 1 131.07 156.65
  L 131.07 156.34
  Q 131.07 156.15 131.26 156.14
  C 135.59 156.05 139.32 156.00 144.06 155.50
  C 147.75 155.12 160.42 153.92 163.02 157.25
  Q 163.45 157.79 162.76 157.84
  Q 151.97 158.52 140.38 157.37
  Z"
/>
<path fill="#000000" d="
  M 213.35 154.97
  Q 213.57 154.93 213.73 155.03
  Q 214.13 155.26 213.98 155.69
  L 213.49 157.15
  Q 211.44 158.77 208.89 157.77
  A 1.40 1.40 0.0 0 1 209.36 155.07
  L 213.35 154.97
  Z"
/>
<path fill="#000000" d="
  M 217.61 156.14
  Q 217.29 155.96 217.13 155.62
  Q 216.76 154.83 217.62 154.95
  L 218.81 155.12
  A 1.07 0.83 -35.1 0 1 218.25 156.95
  Q 218.06 156.96 217.61 156.14
  Z"
/>
<ellipse fill="#000000" cx="0.00" cy="0.00" transform="translate(248.03,156.01) rotate(8.0)" rx="2.98" ry="0.95"/>
<path fill="#000000" d="
  M 263.78 155.59
  C 262.42 158.41 258.22 158.32 255.53 157.86
  Q 255.05 157.78 255.03 157.30
  C 254.91 154.21 261.07 154.91 263.48 155.07
  Q 264.02 155.11 263.78 155.59
  Z"
/>
<path fill="#000000" d="
  M 225.13 160.92
  Q 221.10 161.58 220.69 159.89
  Q 221.16 158.53 220.97 156.61
  Q 220.91 156.01 221.52 156.00
  L 226.74 155.98
  A 0.40 0.40 0.0 0 1 227.11 156.55
  L 225.13 160.92
  Z"
/>
<path fill="#000000" d="
  M 239.89 160.81
  L 231.77 160.92
  C 231.06 159.49 230.52 157.16 232.23 156.24
  Q 233.35 155.64 234.67 156.37
  Q 237.82 158.09 239.89 160.81
  Z"
/>
<ellipse fill="#ff0000" cx="0.00" cy="0.00" transform="translate(691.04,157.52) rotate(30.0)" rx="2.08" ry="1.33"/>
<path fill="#ff0000" d="
  M 424.38 159.80
  A 0.56 0.56 0.0 0 1 423.38 160.05
  Q 422.61 159.06 423.07 157.81
  A 0.82 0.82 0.0 0 1 424.65 158.23
  L 424.38 159.80
  Z"
/>
</svg>
